<svg width="838" height="709" viewBox="0 0 838 709" fill="none" xmlns="http://www.w3.org/2000/svg">
<path fill-rule="evenodd" clip-rule="evenodd" d="M300.478 5.12699C298.015 7.39699 296 9.78799 296 10.44C296 11.091 298.087 14.433 300.639 17.867L305.277 24.109L307.916 21.58L310.555 19.052L344.281 18.946L378.006 18.839L415.869 57.17L453.733 95.5H494.453H535.174L537.587 92.694C540.671 89.109 540.671 84.892 537.587 81.306L535.175 78.5L497.934 78.214L460.693 77.929L422.597 39.425L384.5 0.92099L344.728 0.95999L304.955 0.99999L300.478 5.12699ZM452.712 3.01199C447.336 7.24099 448.414 15.021 454.741 17.665C457.924 18.995 462.556 19.171 485.208 18.823C499.9 18.597 512.276 18.057 512.71 17.622C514.168 16.164 513.521 2.94199 511.943 1.94399C511.149 1.44099 498.073 1.02399 482.885 1.01499C456.716 1.00099 455.136 1.10499 452.712 3.01199ZM593.438 68.235C591.798 70.031 589.414 72.998 588.14 74.829L585.824 78.157L592.662 85.329C596.423 89.273 600.175 93.048 601 93.718C602.118 94.626 612.052 94.945 640 94.97L677.5 95.004L717 133.483C755.819 171.299 756.57 171.962 760.576 171.981C765.815 172.005 769 168.908 769 163.788C769 160.385 766.878 158.13 726.959 119.102L684.919 78H647.234H609.55L602.985 71.485L596.421 64.971L593.438 68.235ZM231.01 75.489L228.651 78H191.936C150.76 78 151.521 77.868 150.346 85.204C149.834 88.406 150.166 89.32 152.8 91.954L155.846 95H195.481H235.116L239.686 90.683L244.256 86.365L241.741 82.433C240.358 80.27 237.909 77.258 236.298 75.739L233.368 72.979L231.01 75.489ZM266.513 119L229.465 156H155.867C82.925 156 82.246 156.018 79.635 158.073C75.96 160.963 75.961 166.688 79.636 170.364L82.273 173H159.855H237.438L274.487 136L311.535 99H350.195H388.855L390.927 96.365C393.909 92.575 393.62 87.968 390.195 84.687L387.391 82H345.476H303.562L266.513 119ZM452.174 153.314C448.929 156.769 449.163 163.197 452.635 165.927C455.263 167.995 455.528 168 562.89 168H670.509L710.005 207.6C732.104 229.757 750.917 247.816 752.718 248.6C755.282 249.715 763.329 250 792.319 250C829.809 250 834.07 249.606 836.021 245.961C837.614 242.985 837.145 237.4 835.089 234.861L833.178 232.5L796.339 232.22L759.5 231.941L718.972 191.47L678.443 151H566.396H454.349L452.174 153.314ZM304 155.68C297.743 158.078 295.931 165.707 300.58 170.076L303.159 172.5L341.83 172.779L380.5 173.058L418.031 210.529L455.561 248L468.031 248.188C474.889 248.291 482.075 248.446 484 248.533C492.747 248.929 603.464 250.236 638.745 250.361L677.991 250.5L716.499 289L755.007 327.5L790.754 327.806C810.414 327.975 827.988 327.837 829.806 327.501C831.624 327.164 833.986 326.014 835.056 324.944C837.627 322.373 837.645 316.019 835.09 312.861L833.179 310.5L797.093 310L761.006 309.5L722.753 271.318L684.5 233.137L590 232.391C538.025 231.98 493.25 231.542 490.5 231.417C487.75 231.292 480.35 231.147 474.056 231.095L462.612 231L424.777 193.25L386.942 155.5L346.221 155.302C323.824 155.193 304.825 155.363 304 155.68ZM5.50001 233.1C0.20401 236.142 -0.738989 243.02 3.58401 247.076C6.15201 249.485 6.30001 249.5 27.502 249.5C39.235 249.5 49.164 249.171 49.565 248.77C50.515 247.818 50.515 234.182 49.564 233.23C48.277 231.942 7.72401 231.822 5.50001 233.1ZM152.589 236.077C151.165 237.769 150 240.209 150 241.5C150 242.791 151.165 245.231 152.589 246.923L155.178 250H192.101H229.024L304.262 325.534L379.5 401.068L419.969 401.034L460.439 401L497.987 363.5L535.535 326H606.964H678.394L717.975 365.5L757.556 405H794.722H831.888L834.612 402.657C838.071 399.682 838.183 393.888 834.85 390.34L832.651 388H798.592H764.533L724.987 348.5L685.442 309H607.227H529.013L521.256 315.91C516.99 319.71 499.778 336.585 483.006 353.41L452.512 384H419.868H387.224L311.927 308.5L236.631 233H195.904H155.178L152.589 236.077ZM371.625 236.125C371.281 237.844 371 241.384 371 243.993V248.737L375.173 249.296C379.097 249.823 381.528 252.037 415.956 286.456C447.968 318.459 453.026 323.13 456.236 323.651C459.405 324.165 460.324 323.83 462.954 321.2C465.117 319.037 466 317.198 466 314.856C466 311.85 462.538 308.093 426.767 272.279L387.534 233H379.892H372.25L371.625 236.125ZM138.971 293.25C136.662 296.137 134.534 299.104 134.244 299.841C133.931 300.636 138.143 305.623 144.591 312.091L155.466 323H192.781H230.095L232.687 325.75C234.113 327.262 251.012 345.488 270.241 366.25C304.139 402.851 305.316 404 308.913 404C315.069 404 319.618 397.826 317.256 392.676C316.31 390.615 258.267 327.142 244.167 312.75L237.554 306H200.006H162.458L153.5 297C148.573 292.05 144.233 288 143.856 288C143.479 288 141.281 290.363 138.971 293.25ZM113.866 340.843C107.258 348.387 106.911 348.968 107.911 350.782C108.432 351.727 119.578 363.148 132.679 376.162L156.5 399.824L164 400.479C168.125 400.839 186.502 400.991 204.838 400.817L238.175 400.5L240.588 397.694C243.671 394.108 243.671 389.891 240.587 386.306L238.175 383.5L201.295 383.215L164.415 382.931L141.465 359.965C128.843 347.334 118.228 337 117.875 337C117.522 337 115.718 338.729 113.866 340.843ZM527.357 383.929C521.907 386.288 520.455 393.1 524.424 397.694C526.821 400.469 526.967 400.498 537.53 400.311C543.404 400.207 548.455 399.879 548.753 399.581C549.373 398.96 549.501 385.168 548.892 384.559C547.959 383.625 529.317 383.08 527.357 383.929ZM633.192 417.434C631.533 419.323 629.881 421.798 629.521 422.934C629.16 424.07 628.446 425 627.933 425C625.145 425 629.292 429.821 652.26 453.286L677.5 479.073L720.173 479.036L762.847 479L765.923 476.411C770.013 472.97 770.23 467.505 766.421 463.924L763.841 461.5L724.039 461.207L684.236 460.915L660.915 437.457C648.089 424.556 637.282 414 636.901 414C636.519 414 634.85 415.545 633.192 417.434ZM504.35 460.714C500.327 461.093 500.188 461.226 499.824 465.053C499.617 467.224 499.613 470.742 499.816 472.872C500.184 476.724 500.211 476.747 505.343 477.363C508.179 477.704 530.831 477.987 555.68 477.991L600.861 478L633.736 511.25C651.818 529.538 668.911 546.965 671.721 549.977C676.341 554.929 677.233 555.455 681.022 555.455C684.365 555.455 685.696 554.892 687.606 552.672C692.854 546.571 693.289 547.166 655.085 508.154C635.882 488.544 617.418 469.8 614.054 466.5L607.938 460.5L558.219 460.411C530.874 460.363 506.633 460.499 504.35 460.714ZM227.772 461.7C226.272 461.936 224.134 463.285 223.022 464.699C220.097 468.418 220.426 472.58 223.923 476.077L226.846 479L258.173 478.985C275.403 478.976 289.996 478.639 290.603 478.235C291.212 477.829 291.799 474.095 291.914 469.894L292.122 462.289L285.811 461.686C278.794 461.015 232.059 461.027 227.772 461.7ZM380.5 461.716C376.928 462.58 374 466.128 374 469.593C374 477.748 377.216 479.313 392.298 478.492C408.625 477.603 408 477.857 408 472.106C408 469.435 407.719 465.844 407.375 464.125L406.75 461L394.625 461.116C387.956 461.18 381.6 461.45 380.5 461.716ZM331.354 490.357C326.01 496.644 325 498.022 325 499.028C325 499.58 337.214 512.4 352.143 527.516L379.285 555L417.893 554.994C441.559 554.991 457.951 554.586 460.248 553.948C467.253 552.003 468.927 543.447 463.186 538.932C460.556 536.863 460.103 536.847 423.513 537.559L386.5 538.279L361.626 512.64C347.945 498.538 336.179 487 335.479 487C334.78 487 332.923 488.511 331.354 490.357ZM564.25 575.498C563.013 577.409 562 579.248 562 579.585C562 579.922 561.258 581.762 560.351 583.673L558.701 587.149L565.129 593.824C568.665 597.496 577.282 606.419 584.279 613.654L597 626.808V665.832V704.855L599.635 706.927C603.425 709.909 608.032 709.62 611.313 706.195L614 703.391V661.567V619.742L605.279 610.621C590.296 594.95 567.549 571.999 567.013 572.012C566.731 572.019 565.487 573.588 564.25 575.498Z" fill="black"/>
</svg>
